<svg width="93" height="83" viewBox="0 0 93 83" fill="none" xmlns="http://www.w3.org/2000/svg">
<path d="M46.4609 49.9492C51.1338 49.9492 54.9219 46.1611 54.9219 41.4883C54.9219 36.8154 51.1338 33.0273 46.4609 33.0273C41.7881 33.0273 38 36.8154 38 41.4883C38 46.1611 41.7881 49.9492 46.4609 49.9492Z" fill="#61DAFB"/>
<path d="M78.5977 27.5352C76.9648 26.9414 75.2578 26.3477 73.4766 25.8281C73.9219 24.0469 74.293 22.2656 74.5898 20.5586C76.1484 10.7617 74.4414 3.85937 69.6914 1.1875C68.2812 0.371093 66.7227 0 64.9414 0C59.7461 0 53.1406 3.85937 46.4609 10.3164C39.7812 3.85937 33.1758 0 27.9805 0C26.1992 0 24.6406 0.371093 23.2305 1.1875C18.4805 3.93359 16.7734 10.8359 18.332 20.5586C18.6289 22.2656 19 24.0469 19.4453 25.8281C17.6641 26.3477 15.957 26.8672 14.3242 27.5352C5.04688 31.0977 0 35.9961 0 41.4883C0 46.9805 5.12109 51.8789 14.3242 55.4414C15.957 56.0352 17.6641 56.6289 19.4453 57.1484C19 58.9297 18.6289 60.7109 18.332 62.418C16.7734 72.2148 18.4805 79.1172 23.2305 81.7891C24.6406 82.6055 26.1992 82.9766 27.9805 82.9766C33.25 82.9766 39.8555 79.1172 46.4609 72.6602C53.1406 79.1172 59.7461 82.9766 64.9414 82.9766C66.7227 82.9766 68.2812 82.6055 69.6914 81.7891C74.4414 79.043 76.1484 72.1406 74.5898 62.418C74.293 60.7109 73.9219 58.9297 73.4766 57.1484C75.2578 56.6289 76.9648 56.1094 78.5977 55.4414C87.875 51.8789 92.9219 46.9805 92.9219 41.4883C92.9219 35.9961 87.875 31.0977 78.5977 27.5352ZM67.6133 4.89844C70.6562 6.67969 71.6953 12.1719 70.4336 19.9648C70.2109 21.5234 69.8398 23.1562 69.3945 24.8633C65.5352 23.9727 61.4531 23.3789 57.1484 23.0078C54.625 19.4453 52.0273 16.2539 49.4297 13.3594C54.9219 7.94141 60.4883 4.23047 65.0156 4.23047C65.9805 4.23047 66.8711 4.45312 67.6133 4.89844ZM59.3008 48.9102C57.9648 51.2852 56.4062 53.6602 54.7734 56.0352C52.0273 56.2578 49.2812 56.332 46.4609 56.332C43.5664 56.332 40.8203 56.2578 38.1484 56.0352C36.5156 53.6602 35.0312 51.2852 33.6953 48.9102C32.2852 46.4609 30.9492 43.9375 29.7617 41.4883C30.9492 39.0391 32.2852 36.5156 33.6953 34.0664C35.0312 31.6914 36.5898 29.3164 38.2227 26.9414C40.9688 26.7188 43.7148 26.6445 46.5352 26.6445C49.4297 26.6445 52.1758 26.7188 54.8477 26.9414C56.4805 29.3164 57.9648 31.6914 59.3008 34.0664C60.7109 36.5156 62.0469 39.0391 63.2344 41.4883C61.9727 43.9375 60.7109 46.3867 59.3008 48.9102ZM65.4609 46.4609C66.5742 49.0586 67.4648 51.582 68.2812 54.1055C65.7578 54.6992 63.0859 55.1445 60.2656 55.5156C61.1562 54.1055 62.1211 52.6211 62.9375 51.0625C63.8281 49.5039 64.6445 47.9453 65.4609 46.4609ZM46.4609 66.5742C44.6797 64.6445 42.9727 62.5664 41.3398 60.4141C43.0469 60.4883 44.7539 60.5625 46.4609 60.5625C48.168 60.5625 49.875 60.4883 51.582 60.4141C49.9492 62.5664 48.2422 64.6445 46.4609 66.5742ZM32.6562 55.4414C29.8359 55.0703 27.1641 54.625 24.6406 54.0313C25.457 51.582 26.3477 48.9844 27.4609 46.3867C28.2773 47.8711 29.0937 49.4297 29.9844 50.9141C30.875 52.5469 31.7656 53.957 32.6562 55.4414ZM27.4609 36.5156C26.3477 33.918 25.457 31.3945 24.6406 28.8711C27.1641 28.2773 29.8359 27.832 32.6562 27.4609C31.7656 28.8711 30.8008 30.3555 29.9844 31.9141C29.0937 33.4727 28.2773 35.0312 27.4609 36.5156ZM46.4609 16.4023C48.2422 18.332 49.9492 20.4102 51.582 22.5625C49.875 22.4883 48.168 22.4141 46.4609 22.4141C44.7539 22.4141 43.0469 22.4883 41.3398 22.5625C42.9727 20.4102 44.6797 18.332 46.4609 16.4023ZM62.9375 31.9883L60.2656 27.5352C63.0859 27.9062 65.7578 28.3516 68.2812 28.9453C67.4648 31.3945 66.5742 33.9922 65.4609 36.5898C64.6445 35.0313 63.8281 33.4727 62.9375 31.9883ZM22.4883 19.9648C21.2266 12.1719 22.2656 6.67969 25.3086 4.89844C26.0508 4.45312 26.9414 4.23047 27.9062 4.23047C32.3594 4.23047 37.9258 7.86719 43.4922 13.3594C40.8945 16.1797 38.2969 19.4453 35.7734 23.0078C31.4687 23.3789 27.3867 24.0469 23.5273 24.8633C23.082 23.1562 22.7852 21.5234 22.4883 19.9648ZM4.15625 41.4883C4.15625 38 8.38672 34.2891 15.8086 31.543C17.293 30.9492 18.9258 30.4297 20.5586 29.9844C21.7461 33.6953 23.2305 37.6289 25.0117 41.5625C23.2305 45.4961 21.6719 49.3555 20.5586 53.0664C10.3164 50.0977 4.15625 45.6445 4.15625 41.4883ZM25.3086 78.0781C22.2656 76.2969 21.2266 70.8047 22.4883 63.0117C22.7109 61.4531 23.082 59.8203 23.5273 58.1133C27.3867 59.0039 31.4687 59.5977 35.7734 59.9688C38.2969 63.5313 40.8945 66.7227 43.4922 69.6172C38 75.0352 32.4336 78.7461 27.9062 78.7461C26.9414 78.7461 26.0508 78.5234 25.3086 78.0781ZM70.4336 63.0117C71.6953 70.8047 70.6562 76.2969 67.6133 78.0781C66.8711 78.5234 65.9805 78.7461 65.0156 78.7461C60.5625 78.7461 54.9961 75.1094 49.4297 69.6172C52.0273 66.7969 54.625 63.5313 57.1484 59.9688C61.4531 59.5977 65.5352 58.9297 69.3945 58.1133C69.8398 59.8203 70.1367 61.4531 70.4336 63.0117ZM77.1133 51.4336C75.6289 52.0273 73.9961 52.5469 72.3633 52.9922C71.1758 49.2812 69.6914 45.3477 67.9102 41.4141C69.6914 37.4805 71.25 33.6211 72.3633 29.9102C82.6055 32.8789 88.7656 37.332 88.7656 41.4883C88.7656 44.9766 84.4609 48.6875 77.1133 51.4336Z" fill="#61DAFB"/>
</svg>
