<svg width="95" height="95" viewBox="0 0 95 95" fill="none" xmlns="http://www.w3.org/2000/svg">
<path fill-rule="evenodd" clip-rule="evenodd" d="M0.904785 41.6783C0.904785 42.2 1.05842 42.5444 1.14451 42.8791C1.70561 45.056 2.91166 46.9241 4.3426 48.6281C6.38064 51.0566 8.87662 53.0115 11.4335 54.8499C13.6511 56.4441 15.914 58.0027 18.1406 59.585C18.5228 59.8567 18.8843 60.1691 19.2992 60.5024C18.9422 60.6954 18.6453 60.8653 18.3365 61.0219C15.3982 62.5122 12.5712 64.1829 9.96541 66.2068C8.39494 67.427 6.87643 68.7236 5.80397 70.418C4.07838 73.1433 3.46756 76.0468 4.75377 79.1469C5.12932 80.0523 5.70229 80.8346 6.51053 81.4128C6.77252 81.5998 7.06643 81.7854 7.37295 81.8581C8.15818 82.0429 8.95826 82.1639 9.75314 82.3101L12.0042 82.3086C14.4935 82.0867 16.7594 81.2339 18.8071 79.8208C22.0074 77.612 24.1635 74.6507 25.0904 70.85C25.7644 68.0875 25.7918 65.3222 24.9977 62.5723C24.9214 62.3177 24.8337 62.0666 24.7349 61.8198C24.6385 61.5726 24.5249 61.3322 24.3913 61.0241L29.4946 58.0895L29.571 58.1549C29.4783 58.4584 29.3795 58.7612 29.2957 59.0677C28.6893 61.2824 28.2863 63.5357 28.431 65.8343C28.5854 68.2835 29.269 70.5761 30.7029 72.6223C31.8622 74.2774 34.6246 74.339 35.8566 72.678C36.2938 72.0879 36.7176 71.4712 37.036 70.8129C37.868 69.0947 38.6383 67.3461 39.4332 65.6094L39.572 65.2917C39.5149 66.1141 39.4481 66.8362 39.4176 67.5591C39.3701 68.688 39.4362 69.8102 39.8221 70.8841C40.1524 71.8029 40.7142 72.4895 41.7667 72.6104C42.4866 72.6928 43.0603 72.3633 43.5895 71.9454C44.409 71.2973 45.0885 70.4896 45.5867 69.5712C46.9976 66.9802 48.4463 64.4048 49.7251 61.7485C51.1086 58.8755 52.3183 55.9186 53.6031 52.9966L53.8153 52.4786C54.1189 53.6713 54.3304 54.8395 54.7201 55.9454C55.1728 57.2286 55.7331 58.4814 56.3432 59.6993C56.6319 60.2745 56.5985 60.6479 56.1985 61.1303C54.5241 63.149 52.8787 65.1923 51.2318 67.2333C50.8674 67.6838 50.5044 68.1425 50.2009 68.6345C50.0167 68.9453 49.8956 69.2893 49.8446 69.6469C49.7935 69.9761 49.8719 70.3123 50.0633 70.585C50.2546 70.8577 50.5441 71.0458 50.8711 71.1097C51.531 71.2515 52.2076 71.2997 52.8809 71.253C55.1795 71.0838 57.2665 70.277 59.1116 68.9099C61.5022 67.139 62.2696 64.7225 61.6907 61.8584C61.5341 61.0813 61.2572 60.3257 60.9878 59.5769C60.8669 59.2392 60.8587 59.0024 61.0791 58.6877C62.9902 55.9587 64.6231 53.0634 66.1416 50.1014C66.2017 49.9848 66.2633 49.8683 66.3687 49.7436C66.8608 52.3042 67.6015 54.772 68.9285 57.0111C68.2516 57.6635 67.5814 58.255 66.9751 58.9067C65.6399 60.3421 64.4821 61.9007 63.8779 63.8014C63.6181 64.6208 63.4185 65.4535 63.5343 66.3286C63.7139 67.6875 64.8272 68.5707 66.1638 68.2612C69.0242 67.5992 71.4935 66.2514 73.2978 63.8638C74.512 62.2562 74.6226 60.463 74.1142 58.5846C73.9746 58.0739 73.8091 57.5715 73.631 56.9859C74.3368 56.767 75.0248 56.5042 75.7366 56.3417C79.4319 55.4986 83.0872 55.6455 86.6482 56.98C88.7271 57.7593 90.4067 59.0633 91.4027 61.1147C92.6191 63.6225 91.9467 66.002 89.5828 67.5873C89.3624 67.735 89.1101 67.8515 88.9275 68.0363C88.869 68.1041 88.8253 68.1834 88.7991 68.269C88.7729 68.3546 88.7648 68.4447 88.7753 68.5336C88.7909 68.6249 89.0321 68.7392 89.1709 68.7377C89.948 68.7318 90.5781 68.3243 91.183 67.9057C92.6985 66.857 93.8044 65.4461 94.0426 63.5884L94.0894 63.4489L94.0322 62.2391C94.0092 62.1693 94.0493 62.1003 94.0441 62.0476C93.722 59.3423 92.277 57.2442 90.1751 55.5995C87.7407 53.6958 84.8662 52.912 81.8262 52.7881C79.3607 52.682 76.8983 53.061 74.5788 53.9036C73.913 54.1448 73.2532 54.4305 72.5838 54.7C72.494 54.5374 72.3975 54.3816 72.3181 54.2205C71.6308 52.8133 70.7981 51.4685 70.614 49.855C70.4834 48.709 70.3231 47.5646 70.5954 46.4313C70.8574 45.341 71.1988 44.2693 71.5202 43.1938C71.6857 42.6402 71.5692 42.3299 71.0408 42.0806C70.8561 41.9901 70.6598 41.9256 70.4574 41.8891C69.1586 41.7005 67.8776 41.8082 66.6196 42.1741C66.1742 42.3039 65.8506 42.5533 65.7519 43.0461C65.6955 43.3289 65.5805 43.5998 65.5003 43.8789C65.1715 45.0389 64.9385 46.2212 64.4071 47.3263C63.0756 50.0984 61.5556 52.7658 60 55.414C59.8315 55.6997 59.6541 55.9802 59.4419 56.3268C58.8956 55.1839 58.313 54.1582 58.1363 52.9558C57.9367 51.5961 57.7794 50.2387 58.1178 48.8894C58.3694 47.883 58.6982 46.8951 59.001 45.9021C59.1442 45.43 59.0782 45.1822 58.6507 44.9335C58.4347 44.8081 58.1905 44.6968 57.9471 44.6604C56.6153 44.4574 55.2545 44.5688 53.9734 44.9855C53.5704 45.1161 53.3589 45.3766 53.2357 45.7922C52.8735 47.0183 52.5647 48.2741 52.0563 49.4401C49.9975 54.1604 47.8793 58.8562 45.7633 63.5513C45.3217 64.5317 44.8044 65.478 44.3064 66.4325C44.1803 66.6744 43.9962 66.8874 43.8388 67.1145C43.7127 66.9654 43.6637 66.8629 43.6644 66.7605C43.6681 66.1571 43.5962 65.5359 43.7112 64.9525C44.0644 63.1882 44.4549 61.4316 44.8824 59.6838C45.2312 58.2395 45.6372 56.8085 46.0238 55.3739C46.1537 54.8937 46.156 54.4447 45.8108 54.0409C45.2312 53.3648 44.0199 53.2163 43.3015 53.7373L42.9838 53.917L43.0454 53.4048C43.1969 52.3072 43.2273 51.2132 42.926 50.1318C42.5504 48.784 41.5885 48.0084 40.1903 48.0514C39.5386 48.0715 38.8543 48.1828 38.2509 48.4203C35.7134 49.4148 33.7622 51.1761 32.1012 53.295C31.9471 53.4916 31.7562 53.6565 31.5393 53.7804C29.3922 54.9709 27.2383 56.1465 25.0853 57.3266L22.6887 58.6395C22.046 58.0265 21.4619 57.3904 20.7991 56.8508C18.7752 55.2002 16.7186 53.5904 14.6805 51.9583C12.874 50.5118 11.124 49.0052 9.78506 47.0896C8.78904 45.6646 8.14705 44.1052 8.08545 42.3433C8.00752 40.0982 8.64432 38.0468 9.78729 36.1371C11.2494 33.6938 13.2437 31.733 15.4361 29.9569C17.7554 28.0792 20.264 26.485 22.8639 25.0295C26.5013 22.9937 30.2427 21.1917 34.2542 20.002C38.3674 18.7818 42.5408 18.0834 46.8454 18.5703C48.5376 18.7618 50.1808 19.1492 51.6897 19.9767C52.8453 20.6098 53.7931 21.4388 54.2339 22.7347C54.6688 24.0098 54.6555 25.3019 54.3542 26.597C53.7419 29.2199 52.3057 31.3819 50.4985 33.3138C47.5342 36.4807 43.9183 38.6368 39.8474 40.0611C37.5067 40.8809 35.0714 41.4003 32.5999 41.607C30.5745 41.777 28.5913 41.5974 26.6735 40.893C25.4037 40.4262 24.2978 39.7122 23.4087 38.6761C23.2498 38.4906 23.0465 38.2895 22.7503 38.4631C22.4601 38.6338 22.4089 38.9099 22.5062 39.1897C22.6687 39.6543 22.8186 40.1382 23.0717 40.5539C23.7078 41.5966 24.6355 42.3529 25.6567 43.0016C27.6183 44.2492 29.8108 44.6686 32.0841 44.7658C35.5338 44.915 38.8996 44.3999 42.2179 43.4744C46.9553 42.1533 51.0744 39.8198 54.3779 36.1386C57.1285 33.0734 59.093 29.614 59.5138 25.437C59.7194 23.3982 59.5005 21.401 58.546 19.5411C57.5107 17.526 55.8645 16.0275 53.8962 14.9952C51.0299 13.4922 47.9365 12.6172 44.7436 12.6172H41.5447C37.6779 12.6172 33.9395 13.7253 30.3058 15.0471C27.5553 16.0483 24.8581 17.2299 22.2397 18.5376C16.5375 21.3869 11.2271 24.8225 6.86529 29.5465C4.69217 31.9 2.85229 34.4969 1.79393 37.5547C1.47504 38.4678 1.19987 39.3956 0.969355 40.3349M21.6311 67.0633C21.384 70.3727 19.884 73.0557 17.4326 75.2289C16.0536 76.4505 14.472 77.3204 12.6299 77.6261C11.9619 77.7367 11.2783 77.7634 10.6304 77.4866C9.70639 77.0918 9.49932 76.2716 9.4815 75.3981C9.45404 74.0057 9.94166 72.747 10.6104 71.5491C11.4832 69.9875 12.7627 68.7971 14.1291 67.6853C16.2814 65.933 18.6163 64.4501 21.0077 63.0503L21.188 62.9761C21.5576 64.3417 21.7335 65.6903 21.6311 67.0633ZM40.3031 52.6805C40.1287 53.7374 39.9104 54.795 39.6017 55.8192C38.5344 59.3646 37.1636 62.8002 35.6815 66.1898C35.4076 66.8169 35.009 67.3891 34.6624 67.9836C34.6034 68.075 34.5328 68.1583 34.4524 68.2315C34.0234 68.6553 33.6167 68.633 33.4 68.0786C33.1476 67.4344 32.9925 66.7449 32.8589 66.0629C32.7691 65.6049 32.7906 65.124 32.7624 64.6549C32.7914 61.3195 33.8089 58.2884 35.5353 55.4666C36.247 54.3029 37.0219 53.1941 38.2056 52.4578C38.574 52.2291 38.9724 52.0528 39.3894 51.9338C40.0203 51.7564 40.4077 52.0481 40.3031 52.6805ZM53.042 68.9106L57.6205 63.5647C57.8113 65.55 54.4365 69.5133 53.042 68.9106ZM67.6653 65.3132C67.3417 65.4988 66.9892 65.6324 66.6574 65.8038C66.3538 65.9612 66.2536 65.8023 66.2447 65.5411C66.2404 65.3603 66.2637 65.1798 66.3138 65.006C66.932 62.8254 68.0698 60.964 69.7627 59.45L69.8815 59.3891C70.6867 61.6416 69.756 64.1154 67.6653 65.3132Z" fill="#CB6699"/>
</svg>
