<svg width="97" height="97" viewBox="0 0 97 97" fill="none" xmlns="http://www.w3.org/2000/svg">
<g clip-path="url(#clip0_40_198)">
<path d="M17.1771 0H79.8229C89.3208 0 97 7.87607 97 17.6175V79.3825C97 89.1239 89.3208 97 79.8229 97H17.1771C7.67917 97 0 89.1239 0 79.3825V17.6175C0 7.87607 7.67917 0 17.1771 0Z" fill="#470137"/>
<path d="M51.0057 25.4936L38.8807 46.0128L51.8141 67.7756C51.8949 67.9415 51.9353 68.1073 51.8949 68.2731C51.8545 68.4389 51.6928 68.3145 51.4503 68.356H42.1949C41.5482 68.356 41.1037 68.3145 40.8207 67.9C39.972 66.159 39.0828 64.4594 38.2341 62.7184C37.3853 61.0188 36.4557 59.2778 35.4857 57.4953C34.5157 55.7128 33.5457 53.9303 32.5757 52.1064H32.4949C31.6462 53.8889 30.7166 55.6714 29.787 57.4538C28.8574 59.2363 27.9278 61.0188 27.0387 62.7598C26.1091 64.5009 25.1795 66.2833 24.2499 67.9829C24.0882 68.3974 23.7649 68.4389 23.3203 68.4389H14.4287C14.267 68.4389 14.1457 68.5218 14.1457 68.3145C14.1053 68.1487 14.1457 67.9829 14.2266 67.8585L26.7962 46.7175L14.5499 25.4521C14.4287 25.2863 14.3882 25.1205 14.4691 25.0376C14.5499 24.9132 14.7116 24.8718 14.8732 24.8718H24.0478C24.2499 24.8718 24.452 24.9132 24.6137 24.9547C24.7753 25.0376 24.8966 25.162 25.0178 25.3278C25.7857 27.1103 26.6749 28.8927 27.6045 30.6752C28.5745 32.4577 29.5041 34.1987 30.5145 35.9397C31.4845 37.6808 32.3737 39.4218 33.2224 41.2043H33.3032C34.152 39.3803 35.0412 37.5979 35.9303 35.8568C36.8195 34.1158 37.7491 32.3748 38.6787 30.6338C39.6082 28.8927 40.4974 27.1103 41.3866 25.4107C41.427 25.2449 41.5078 25.0791 41.6291 24.9962C41.7907 24.9132 41.9524 24.8718 42.1545 24.9132H50.6824C50.8845 24.8718 51.0866 24.9962 51.127 25.2034C51.1674 25.2449 51.0866 25.4107 51.0057 25.4936Z" fill="#FF61F6"/>
<path d="M69.6783 69.2265C66.6875 69.268 63.6966 68.6462 60.9887 67.3611C58.4425 66.159 56.3408 64.1692 54.8858 61.7235C53.3904 59.1949 52.6629 56.0444 52.6629 52.2722C52.6225 49.2047 53.3904 46.1786 54.8858 43.5256C56.4216 40.8312 58.6446 38.5927 61.3121 37.1004C64.1412 35.4838 67.5362 34.6962 71.5375 34.6962C71.7396 34.6962 72.0225 34.6962 72.3862 34.7376C72.75 34.7791 73.1541 34.7791 73.6391 34.8205V21.7214C73.6391 21.4312 73.7604 21.2654 74.0433 21.2654H82.2479C82.45 21.2239 82.6116 21.3897 82.6521 21.5556C82.6521 21.597 82.6521 21.6385 82.6521 21.6385V61.1017C82.6521 61.8479 82.6925 62.6769 82.7329 63.5889C82.8137 64.4594 82.8541 65.2885 82.8946 65.9932C82.8946 66.2833 82.7733 66.5321 82.4904 66.6564C80.3887 67.5684 78.1658 68.2316 75.9025 68.6462C73.8412 69.0192 71.78 69.2265 69.6783 69.2265ZM73.6391 60.9359V42.6966C73.2754 42.6137 72.9116 42.5308 72.5479 42.4893C72.1033 42.4479 71.6587 42.4064 71.2141 42.4064C69.6379 42.4064 68.0616 42.738 66.6471 43.4842C65.2729 44.1889 64.1008 45.2252 63.2116 46.5517C62.3225 47.8782 61.8779 49.6607 61.8779 51.8162C61.8375 53.2671 62.08 54.718 62.565 56.0859C62.9691 57.2051 63.5754 58.2 64.3837 59.0291C65.1516 59.7752 66.0812 60.3556 67.1321 60.6872C68.2233 61.0603 69.355 61.2261 70.4866 61.2261C71.0929 61.2261 71.6587 61.1846 72.1841 61.1432C72.7096 61.1846 73.1541 61.1017 73.6391 60.9359Z" fill="#FF61F6"/>
</g>
<defs>
<clipPath id="clip0_40_198">
<rect width="97" height="97" fill="white"/>
</clipPath>
</defs>
</svg>
