<svg width="65" height="99" viewBox="0 0 65 99" fill="none" xmlns="http://www.w3.org/2000/svg">
<g clip-path="url(#clip0_40_214)">
<path d="M16.2533 99C25.2215 99 32.5001 91.608 32.5001 82.5V66H16.2533C7.28514 66 0.0065918 73.392 0.0065918 82.5C0.0065918 91.608 7.28514 99 16.2533 99Z" fill="#0ACF83"/>
<path d="M0.0065918 49.5C0.0065918 40.392 7.28514 33 16.2533 33H32.5001V66H16.2533C7.28514 66 0.0065918 58.608 0.0065918 49.5Z" fill="#A259FF"/>
<path d="M0.0065918 16.5C0.0065918 7.39203 7.28514 3.05176e-05 16.2533 3.05176e-05H32.5001V33H16.2533C7.28514 33 0.0065918 25.608 0.0065918 16.5Z" fill="#F24E1E"/>
<path d="M32.5 3.05176e-05H48.7467C57.715 3.05176e-05 64.9935 7.39203 64.9935 16.5C64.9935 25.608 57.715 33 48.7467 33H32.5V3.05176e-05Z" fill="#FF7262"/>
<path d="M64.9935 49.5C64.9935 58.608 57.715 66 48.7467 66C39.7785 66 32.5 58.608 32.5 49.5C32.5 40.392 39.7785 33 48.7467 33C57.715 33 64.9935 40.392 64.9935 49.5Z" fill="#1ABCFE"/>
</g>
<defs>
<clipPath id="clip0_40_214">
<rect width="65" height="99" fill="white"/>
</clipPath>
</defs>
</svg>
