<svg width="40" height="38" viewBox="0 0 40 38" fill="none" xmlns="http://www.w3.org/2000/svg">
<path d="M40.0001 28.5C40.0001 29.6198 39.5318 30.6937 38.6983 31.4856C37.8648 32.2774 36.7344 32.7222 35.5556 32.7222H26.6667V5.27777H35.5556C36.7344 5.27777 37.8648 5.72261 38.6983 6.51443C39.5318 7.30625 40.0001 8.38019 40.0001 9.49999V28.5Z" fill="#ED2939"/>
<path d="M4.44444 5.27777C3.2657 5.27777 2.13524 5.72261 1.30175 6.51443C0.468253 7.30625 0 8.38019 0 9.49999L0 28.5C0 29.6198 0.468253 30.6937 1.30175 31.4856C2.13524 32.2774 3.2657 32.7222 4.44444 32.7222H13.3333V5.27777H4.44444Z" fill="#002495"/>
<path d="M13.3333 5.27777H26.6666V32.7222H13.3333V5.27777Z" fill="#EEEEEE"/>
</svg>
