<svg width="95" height="95" viewBox="0 0 95 95" fill="none" xmlns="http://www.w3.org/2000/svg">
<path d="M17.5216 80.753L10.8508 5.9375H84.1493L77.4696 80.7411L47.4555 89.0625L17.5216 80.753Z" fill="#E44F26"/>
<path d="M47.5 82.7034L71.7547 75.9792L77.4606 12.0561H47.5V82.7034Z" fill="#F1662A"/>
<path d="M47.5 39.802H35.3578L34.5206 30.4059H47.5V21.2295H24.4922L24.7119 23.6936L26.9652 48.9784H47.5V39.802ZM47.5 63.6322L47.4584 63.6441L37.24 60.8861L36.5869 53.5681H27.3748L28.6603 67.9725L47.4584 73.1916L47.5 73.1797V63.6322Z" fill="#EBEBEB"/>
<path d="M47.4673 39.802V48.9784H58.7663L57.7035 60.8801L47.4673 63.6411V73.1886L66.2803 67.9725L66.4168 66.4228L68.5721 42.2661L68.7978 39.802H47.4673ZM47.4673 21.2295V30.4059H69.632L69.816 28.3456L70.2346 23.6936L70.4543 21.2295H47.4673Z" fill="white"/>
</svg>
