<svg width="95" height="95" viewBox="0 0 95 95" fill="none" xmlns="http://www.w3.org/2000/svg">
<path d="M0 0H95V95H0V0Z" fill="#F7DF1E"/>
<path d="M24.9791 79.3888L32.2489 74.9891C33.6516 77.4758 34.9274 79.5799 37.9878 79.5799C40.9213 79.5799 42.7712 78.4325 42.7712 73.969V43.6143H51.6986V74.0952C51.6986 83.3417 46.2784 87.5507 38.3704 87.5507C31.2287 87.5507 27.0832 83.852 24.9788 79.3881M56.5477 78.4322L63.8167 74.2236C65.7304 77.3486 68.2175 79.6441 72.6172 79.6441C76.3166 79.6441 78.6753 77.7946 78.6753 75.2437C78.6753 72.1829 76.252 71.0986 72.1708 69.3136L69.9394 68.3562C63.4983 65.6149 59.2259 62.1712 59.2259 54.9015C59.2259 48.2055 64.3273 43.1037 72.2988 43.1037C77.9743 43.1037 82.0556 45.0808 84.9887 50.2461L78.0374 54.7103C76.5066 51.9683 74.8493 50.8844 72.2984 50.8844C69.6837 50.8844 68.0256 52.5424 68.0256 54.7103C68.0256 57.3885 69.6837 58.4732 73.5097 60.1313L75.7414 61.0876C83.3303 64.3402 87.6027 67.656 87.6027 75.1164C87.6027 83.1521 81.2896 87.5518 72.8083 87.5518C64.5184 87.5518 59.1617 83.5981 56.5473 78.4325" fill="black"/>
</svg>
