<svg width="97" height="97" viewBox="0 0 97 97" fill="none" xmlns="http://www.w3.org/2000/svg">
<path d="M21.0673 20.1556C23.7826 22.3615 24.8012 22.1932 29.8999 21.853L77.9693 18.9667C78.9885 18.9667 78.1407 17.9496 77.8012 17.7806L69.8175 12.0093C68.2881 10.8218 66.2498 9.46171 62.3441 9.80192L15.7987 13.1968C14.1012 13.3651 13.7621 14.2138 14.4382 14.8942L21.0673 20.1556ZM23.9533 31.358V81.9353C23.9533 84.6532 25.3116 85.6704 28.3689 85.5023L81.1968 82.4455C84.2556 82.2773 84.5964 80.4072 84.5964 78.1995V27.9617C84.5964 25.7571 83.7486 24.5682 81.8758 24.7379L26.67 27.9617C24.6328 28.1329 23.9533 29.1519 23.9533 31.358ZM76.105 34.0711C76.4438 35.6002 76.105 37.1279 74.573 37.2997L72.0278 37.8068V75.1459C69.8175 76.3338 67.7798 77.0128 66.0817 77.0128C63.3627 77.0128 62.6818 76.1638 60.6453 73.6191L43.9957 47.4814V72.7707L49.2642 73.9593C49.2642 73.9593 49.2642 77.0128 45.0136 77.0128L33.2956 77.6925C32.9552 77.0128 33.2956 75.3173 34.4842 74.9771L37.5421 74.13V40.6932L33.2963 40.353C32.9558 38.8239 33.8039 36.6193 36.1837 36.4481L48.7546 35.6008L66.0817 62.0787V38.6555L61.6639 38.1484C61.3248 36.2792 62.6818 34.9218 64.3807 34.7535L76.105 34.0711ZM11.8906 8.61438L60.3054 5.0491C66.2511 4.53917 67.7804 4.88074 71.5175 7.59524L86.9716 18.4574C89.522 20.3253 90.3718 20.8339 90.3718 22.8701V82.4455C90.3718 86.1787 89.0118 88.3871 84.2562 88.7246L28.0326 92.1203C24.4629 92.2903 22.764 91.7814 20.8946 89.4036L9.51359 74.6376C7.47426 71.9197 6.62622 69.8859 6.62622 67.5068V14.5527C6.62622 11.4994 7.98668 8.95252 11.8906 8.61438Z" fill="black"/>
</svg>
