<svg width="95" height="95" viewBox="0 0 95 95" fill="none" xmlns="http://www.w3.org/2000/svg">
<g clip-path="url(#clip0_40_208)">
<path d="M42.4998 0.000648491C38.9526 0.0156729 35.5652 0.291443 32.5846 0.772221C23.8042 2.18627 22.21 5.14601 22.21 10.6043V17.813H42.9593V20.2159H22.21H14.4229C8.39263 20.2159 3.11231 23.5199 1.4607 29.8054C-0.444419 37.01 -0.528922 41.5058 1.4607 49.0286C2.93563 54.6282 6.45797 58.6181 12.4883 58.6181H19.6224V49.9765C19.6224 43.7335 25.548 38.2266 32.5846 38.2266H53.3097C59.0788 38.2266 63.6843 33.8965 63.6843 28.615V10.6043C63.6843 5.47831 58.9406 1.62772 53.3097 0.772221C49.7453 0.231344 46.0469 -0.0143761 42.4998 0.000648491ZM31.2787 5.79847C33.422 5.79847 35.1722 7.42002 35.1722 9.41384C35.1722 11.4006 33.422 13.0072 31.2787 13.0072C29.1278 13.0072 27.3852 11.4006 27.3852 9.41384C27.3852 7.42002 29.1278 5.79847 31.2787 5.79847Z" fill="url(#paint0_linear_40_208)"/>
<path d="M66.2719 20.2159V28.615C66.2719 35.1267 60.2157 40.6074 53.3097 40.6074H32.5846C26.9076 40.6074 22.21 45.0365 22.21 50.219V68.2297C22.21 73.3557 27.0997 76.3707 32.5846 77.8413C39.1527 79.6018 45.4511 79.92 53.3097 77.8413C58.5334 76.4626 63.6843 73.688 63.6843 68.2297V61.021H42.9592V58.6181H63.6843H74.059C80.0893 58.6181 82.3364 54.7838 84.4336 49.0286C86.5999 43.1037 86.5077 37.4059 84.4336 29.8054C82.9433 24.333 80.097 20.2159 74.059 20.2159H66.2719ZM54.6156 65.8268C56.7665 65.8268 58.5091 67.4334 58.5091 69.4202C58.5091 71.414 56.7665 73.0355 54.6156 73.0355C52.4723 73.0355 50.7221 71.414 50.7221 69.4202C50.7221 67.4334 52.4723 65.8268 54.6156 65.8268Z" fill="url(#paint1_linear_40_208)"/>
<path opacity="0.44382" d="M43.1947 95C58.5514 95 71.0004 92.7995 71.0004 90.085C71.0004 87.3705 58.5514 85.17 43.1947 85.17C27.838 85.17 15.3889 87.3705 15.3889 90.085C15.3889 92.7995 27.838 95 43.1947 95Z" fill="url(#paint2_radial_40_208)"/>
</g>
<defs>
<linearGradient id="paint0_linear_40_208" x1="-2.58382e-07" y1="-2.04603e-07" x2="44.0742" y2="41.2004" gradientUnits="userSpaceOnUse">
<stop stop-color="#5A9FD4"/>
<stop offset="1" stop-color="#306998"/>
</linearGradient>
<linearGradient id="paint1_linear_40_208" x1="54.117" y1="68.8141" x2="38.9905" y2="45.5613" gradientUnits="userSpaceOnUse">
<stop stop-color="#FFD43B"/>
<stop offset="1" stop-color="#FFE873"/>
</linearGradient>
<radialGradient id="paint2_radial_40_208" cx="0" cy="0" r="1" gradientUnits="userSpaceOnUse" gradientTransform="translate(43.1947 90.085) rotate(-90) scale(4.91501 23.6991)">
<stop stop-color="#B8B8B8" stop-opacity="0.498039"/>
<stop offset="1" stop-color="#7F7F7F" stop-opacity="0"/>
</radialGradient>
<clipPath id="clip0_40_208">
<rect width="95" height="95" fill="white"/>
</clipPath>
</defs>
</svg>
