<svg width="95" height="95" viewBox="0 0 95 95" fill="none" xmlns="http://www.w3.org/2000/svg">
<path d="M47.5029 19.0015C34.836 19.0015 26.9221 25.3323 23.7529 37.9993C28.5014 31.6677 34.0448 29.2934 40.3764 30.8765C43.9916 31.7775 46.5752 34.3989 49.4363 37.3038C54.0928 42.0293 59.4826 47.5 71.2529 47.5C83.9191 47.5 91.8338 41.1684 95.0029 28.4985C90.2529 34.8333 84.7115 37.2088 78.3787 35.625C74.7642 34.7232 72.1836 32.1026 69.3188 29.1977C64.6653 24.4721 59.277 19.0015 47.5029 19.0015ZM23.7529 47.5C11.0868 47.5 3.17207 53.8316 0.00292969 66.5015C4.75244 60.1667 10.2936 57.7912 16.6264 59.375C20.2416 60.2768 22.8252 62.8974 25.6863 65.8023C30.3428 70.5279 35.7326 75.9985 47.5029 75.9985C60.1691 75.9985 68.0838 69.6677 71.2529 57.0007C66.5029 63.3326 60.9615 65.7069 54.6287 64.1235C51.0142 63.2225 48.4336 60.6011 45.5688 57.6962C40.9153 52.9707 35.527 47.5 23.7529 47.5Z" fill="#38BDF8"/>
</svg>
