<svg width="40" height="38" viewBox="0 0 40 38" fill="none" xmlns="http://www.w3.org/2000/svg">
<path d="M23.7501 32.0625H33.7501C34.9857 32.0625 36.0357 31.7977 36.9076 31.3363L23.7501 23.88V32.0625ZM39.7876 27.4372C39.9301 26.8333 40.0026 26.1939 40.0026 25.5307V22.5619H31.1838L39.7851 27.4372M0.218834 10.5444C0.0705306 11.1761 -0.00284328 11.8216 8.42521e-05 12.4688V15.4375H8.85258L0.218834 10.5444ZM16.2501 5.9375H6.25008C5.02321 5.9375 3.98008 6.19875 3.11196 6.65356L16.2501 14.0992V5.9375ZM3.15196 31.3654C4.01196 31.8072 5.04133 32.0625 6.25008 32.0625H16.2501V23.9424L3.15196 31.3654ZM8.42521e-05 22.5625V25.5312C8.42521e-05 26.2147 0.0763343 26.8731 0.226959 27.4924L8.92633 22.5625H8.42521e-05ZM36.947 6.68266C36.0682 6.20884 35.0038 5.9375 33.7501 5.9375H23.7501V14.1615L36.947 6.68266ZM40.0001 15.4375V12.4688C40.0001 11.8192 39.9295 11.1928 39.7926 10.6002L31.2576 15.4375H40.0001Z" fill="#2E3192"/>
<path d="M31.2575 15.4375L39.7925 10.6002C39.4012 8.89972 38.4487 7.49194 36.9469 6.68266L23.75 14.1615V5.9375H22.5V16.625H40V15.4375H31.2575ZM0 21.375V22.5625H8.92625L0.226875 27.4924C0.64 29.1876 1.62125 30.5793 3.15188 31.3654L16.25 23.9424V32.0625H17.5V21.375H0ZM40 21.375H22.5V32.0625H23.75V23.88L36.9075 31.3369C38.4206 30.5366 39.385 29.1365 39.785 27.4384L31.1838 22.5625H40V21.375ZM16.25 5.9375V14.0992L3.11188 6.65356C1.59312 7.44919 0.6225 8.84688 0.218125 10.5444L8.8525 15.4375H0V16.625H17.5V5.9375H16.25Z" fill="#E6E7E8"/>
<path d="M22.5 16.625V5.9375H17.5V16.625H0V21.375H17.5V32.0625H22.5V21.375H40V16.625H22.5Z" fill="#BE1E2D"/>
<path opacity="0.84" d="M13.7113 15.4375L1.18 8.33093C0.910625 8.71093 0.694375 9.12893 0.515625 9.57424L10.8575 15.4375H13.7094M39.4313 28.5535L28.9231 22.5625H26.0131L38.7088 29.8176C39.0024 29.4263 39.2451 29.0026 39.4313 28.5558M37.9494 7.35718L23.7306 15.4375L26.6175 15.4393L38.8869 8.46096C38.6131 7.98774 38.3244 7.68255 37.9494 7.35718ZM1.13313 29.6133C1.41429 30.0201 1.75263 30.3884 2.13875 30.7082L16.2894 22.5625H13.4375L1.13313 29.6133Z" fill="#BE1E2D"/>
</svg>
